<?xml version="1.0" encoding="UTF-8"?>
<svg xmlns="http://www.w3.org/2000/svg" xmlns:xlink="http://www.w3.org/1999/xlink" width="12px" height="12px" viewBox="0 0 12 12" version="1.1">
<g id="surface1">
<path style=" stroke:none;fill-rule:nonzero;fill:rgb(20%,20%,19.607843%);fill-opacity:1;" d="M 11 1.125 L 9.375 1.125 L 9.375 0.375 C 9.375 0.167969 9.207031 0 9 0 C 8.792969 0 8.625 0.167969 8.625 0.375 L 8.625 1.125 L 6.375 1.125 L 6.375 0.375 C 6.375 0.167969 6.207031 0 6 0 C 5.792969 0 5.625 0.167969 5.625 0.375 L 5.625 1.125 L 3.375 1.125 L 3.375 0.375 C 3.375 0.167969 3.207031 0 3 0 C 2.792969 0 2.625 0.167969 2.625 0.375 L 2.625 1.125 L 1 1.125 C 0.449219 1.125 0 1.574219 0 2.125 L 0 11 C 0 11.550781 0.449219 12 1 12 L 11 12 C 11.550781 12 12 11.550781 12 11 L 12 2.125 C 12 1.574219 11.550781 1.125 11 1.125 Z M 11.25 11 C 11.25 11.136719 11.136719 11.25 11 11.25 L 1 11.25 C 0.863281 11.25 0.75 11.136719 0.75 11 L 0.75 2.125 C 0.75 1.988281 0.863281 1.875 1 1.875 L 2.625 1.875 L 2.625 2.625 C 2.625 2.832031 2.792969 3 3 3 C 3.207031 3 3.375 2.832031 3.375 2.625 L 3.375 1.875 L 5.625 1.875 L 5.625 2.625 C 5.625 2.832031 5.792969 3 6 3 C 6.207031 3 6.375 2.832031 6.375 2.625 L 6.375 1.875 L 8.625 1.875 L 8.625 2.625 C 8.625 2.832031 8.792969 3 9 3 C 9.207031 3 9.375 2.832031 9.375 2.625 L 9.375 1.875 L 11 1.875 C 11.136719 1.875 11.25 1.988281 11.25 2.125 Z M 11.25 11 "/>
<path style=" stroke:none;fill-rule:nonzero;fill:rgb(20%,20%,19.607843%);fill-opacity:1;" d="M 2.625 4.5 L 4.125 4.5 L 4.125 5.625 L 2.625 5.625 Z M 2.625 4.5 "/>
<path style=" stroke:none;fill-rule:nonzero;fill:rgb(20%,20%,19.607843%);fill-opacity:1;" d="M 2.625 6.375 L 4.125 6.375 L 4.125 7.5 L 2.625 7.5 Z M 2.625 6.375 "/>
<path style=" stroke:none;fill-rule:nonzero;fill:rgb(20%,20%,19.607843%);fill-opacity:1;" d="M 2.625 8.25 L 4.125 8.25 L 4.125 9.375 L 2.625 9.375 Z M 2.625 8.25 "/>
<path style=" stroke:none;fill-rule:nonzero;fill:rgb(20%,20%,19.607843%);fill-opacity:1;" d="M 5.25 8.25 L 6.75 8.25 L 6.75 9.375 L 5.25 9.375 Z M 5.25 8.25 "/>
<path style=" stroke:none;fill-rule:nonzero;fill:rgb(20%,20%,19.607843%);fill-opacity:1;" d="M 5.25 6.375 L 6.75 6.375 L 6.75 7.5 L 5.25 7.5 Z M 5.25 6.375 "/>
<path style=" stroke:none;fill-rule:nonzero;fill:rgb(20%,20%,19.607843%);fill-opacity:1;" d="M 5.25 4.5 L 6.75 4.5 L 6.75 5.625 L 5.25 5.625 Z M 5.25 4.5 "/>
<path style=" stroke:none;fill-rule:nonzero;fill:rgb(20%,20%,19.607843%);fill-opacity:1;" d="M 7.875 8.25 L 9.375 8.25 L 9.375 9.375 L 7.875 9.375 Z M 7.875 8.25 "/>
<path style=" stroke:none;fill-rule:nonzero;fill:rgb(20%,20%,19.607843%);fill-opacity:1;" d="M 7.875 6.375 L 9.375 6.375 L 9.375 7.5 L 7.875 7.5 Z M 7.875 6.375 "/>
<path style=" stroke:none;fill-rule:nonzero;fill:rgb(20%,20%,19.607843%);fill-opacity:1;" d="M 7.875 4.5 L 9.375 4.5 L 9.375 5.625 L 7.875 5.625 Z M 7.875 4.5 "/>
</g>
</svg>
