<?xml version="1.0" encoding="UTF-8"?>
<svg xmlns="http://www.w3.org/2000/svg" xmlns:xlink="http://www.w3.org/1999/xlink" width="12px" height="12px" viewBox="0 0 12 12" version="1.1">
<g id="surface1">
<path style="fill:none;stroke-width:9.260416;stroke-linecap:round;stroke-linejoin:round;stroke:rgb(0%,0%,0%);stroke-opacity:1;stroke-miterlimit:4;" d="M -1792.571571 -222.47796 C -1792.571571 -245.327554 -1811.080345 -263.896617 -1833.86965 -263.896617 C -1856.658955 -263.896617 -1875.167729 -245.327554 -1875.167729 -222.47796 C -1875.167729 -199.568076 -1856.658955 -180.999013 -1833.86965 -180.999013 C -1811.080345 -180.999013 -1792.571571 -199.568076 -1792.571571 -222.47796 Z M -1792.571571 -222.47796 " transform="matrix(0.0647919,0,0,0.0647919,124.819909,17.399146)"/>
<path style="fill:none;stroke-width:9.260416;stroke-linecap:round;stroke-linejoin:round;stroke:rgb(0%,0%,0%);stroke-opacity:1;stroke-miterlimit:4;" d="M -1921.590388 -88.033118 L -1746.148913 -88.033118 M -1921.590388 -88.033118 C -1921.771255 -90.263817 -1921.831544 -92.494516 -1921.831544 -94.725216 C -1921.831544 -142.413946 -1882.462718 -180.999013 -1833.86965 -180.999013 C -1785.276582 -180.999013 -1745.907756 -142.413946 -1745.907756 -94.725216 C -1745.907756 -92.494516 -1745.968045 -90.263817 -1746.148913 -88.033118 " transform="matrix(0.0647919,0,0,0.0647919,124.819909,17.399146)"/>
</g>
</svg>
